<svg width="184" height="36" xmlns="http://www.w3.org/2000/svg" version="1.1">

 <title>logo</title>
 <g>
  <title>Layer 1</title>
  <path stroke="#063a3a" id="svg_1" fill="#4266ff" d="m24.28,18.52l2.12,0a0.6,0.6 0 0 1 0.68,0.68l0,10.1a0.6,0.6 0 0 1 -0.68,0.68l-6.72,0a0.6,0.6 0 0 1 -0.68,-0.68l0,-3.52l-18.33,0a0.6,0.6 0 0 1 -0.67,-0.69l0,-24.19a0.6,0.6 0 0 1 0.67,-0.68l7,0a0.6,0.6 0 0 1 0.68,0.68l0,17.62l7.6,0l0,-17.62a0.6,0.6 0 0 1 0.66,-0.68l7,0a0.6,0.6 0 0 1 0.68,0.68l-0.01,17.62z" class="a"/>
  <path stroke="#063a3a" id="svg_2" fill="#4266ff" d="m54.79,0.22a0.6,0.6 0 0 1 0.68,0.68l0,25.19c0,2.57 -0.18,4 -1.08,5.63c-1.17,2.3 -4.19,3.47 -10.28,3.47a48.35,48.35 0 0 1 -9.33,-0.72a0.66,0.66 0 0 1 -0.59,-0.72l0,-4.18c0,-0.45 0.18,-0.68 0.59,-0.68l8.52,0c3.38,0 4.28,-0.68 4.28,-3.16l0,-0.32a22.64,22.64 0 0 1 -5.32,0.59c-3.92,0 -6.72,-0.86 -8.34,-2.61s-2.39,-4.64 -2.39,-8.66l0,-13.83a0.6,0.6 0 0 1 0.68,-0.68l6.49,0a0.6,0.6 0 0 1 0.68,0.68l0,12.08c0,2.57 0.32,4.24 0.95,5s2,1.17 4.06,1.17a15.68,15.68 0 0 0 3.2,-0.27l0,-17.98a0.6,0.6 0 0 1 0.68,-0.68l6.52,0z" class="a"/>
  <path stroke="#063a3a" id="svg_3" fill="#4266ff" d="m85.27,0.22a0.6,0.6 0 0 1 0.68,0.68l0,24.19a0.6,0.6 0 0 1 -0.68,0.68l-7,0a0.6,0.6 0 0 1 -0.66,-0.68l0,-8.05l-7.8,0l0,8.05a0.6,0.6 0 0 1 -0.68,0.68l-7,0a0.6,0.6 0 0 1 -0.68,-0.68l0,-24.19a0.6,0.6 0 0 1 0.68,-0.68l7,0a0.6,0.6 0 0 1 0.68,0.68l0,8.74l7.8,0l0,-8.74a0.6,0.6 0 0 1 0.68,-0.68l6.98,0z" class="a"/>
  <path stroke="#063a3a" id="svg_4" fill="#4266ff" d="m111.36,2.3c1.58,1.49 2,3.16 2,5.82l0,15.5a1.34,1.34 0 0 1 -1.14,1.47a51.28,51.28 0 0 1 -10.32,0.95a27,27 0 0 1 -7,-0.59c-2.93,-0.81 -4,-2.57 -4.24,-6.58l0,-1.2c0,-2.93 0.81,-4.87 2.34,-5.82s4,-1.49 7.48,-1.49l5,0l0,-0.9c0,-1.76 -1.13,-2.66 -3.43,-2.66l-8.85,0c-0.5,0 -0.63,-0.14 -0.63,-0.68l0,-4.64c0,-0.54 0.14,-0.59 0.63,-0.72a44.72,44.72 0 0 1 8.84,-0.77c4.73,0.01 7.84,0.73 9.32,2.31zm-5.9,12.79l-4.19,0c-2.34,0 -2.84,0.59 -2.84,2.07l0,0.5c0,1.62 0.72,2.07 3.07,2.07a18.29,18.29 0 0 0 4,-0.36l-0.04,-4.28z" class="a"/>
  <path stroke="#063a3a" id="svg_5" fill="#4266ff" d="m149,0.22a0.56,0.56 0 0 1 0.59,0.54l2.84,24.43c0,0.41 -0.14,0.59 -0.54,0.59l-6.9,0c-0.32,0 -0.5,-0.18 -0.54,-0.59l-1.44,-13.25l-4.73,12.49a0.85,0.85 0 0 1 -0.81,0.59l-4.42,0a0.85,0.85 0 0 1 -0.81,-0.59l-4.69,-12.49l-1.49,13.25c0,0.41 -0.23,0.59 -0.54,0.59l-6.91,0q-0.61,0 -0.54,-0.54l2.9,-24.43a0.58,0.58 0 0 1 0.64,-0.59l5.68,0c1.58,0 2.3,0.27 2.7,1.35l5.27,13.07l5.27,-13.12c0.41,-1.07 1.08,-1.3 2.7,-1.3l5.77,0z" class="a"/>
  <path stroke="#063a3a" id="svg_6" fill="#4266ff" d="m180.87,0.22c0.36,0 0.54,0.18 0.54,0.59l0,24.39c0,0.41 -0.18,0.59 -0.54,0.59l-6.67,0c-0.32,0 -0.5,-0.18 -0.5,-0.59l0,-11.86l-8.88,11.36a2.85,2.85 0 0 1 -2.43,1.08l-4.46,0c-0.36,0 -0.54,-0.18 -0.54,-0.59l0,-24.38c0,-0.41 0.18,-0.59 0.54,-0.59l6.68,0c0.36,0 0.54,0.18 0.54,0.59l0,12l8.7,-11.36a2.86,2.86 0 0 1 2.38,-1.23l4.64,0z" class="a"/>
 </g>
</svg>